<svg version="1.1" viewBox="0.0 0.0 124.43832020997375 113.64829396325459" fill="none" stroke="none" stroke-linecap="square" stroke-miterlimit="10" xmlns:xlink="http://www.w3.org/1999/xlink" xmlns="http://www.w3.org/2000/svg"><clipPath id="p.0"><path d="m0 0l124.438324 0l0 113.64829l-124.438324 0l0 -113.64829z" clip-rule="nonzero"/></clipPath><g clip-path="url(#p.0)"><path fill="#000000" fill-opacity="0.0" d="m0 0l124.438324 0l0 113.64829l-124.438324 0z" fill-rule="evenodd"/><path fill="#6aa84f" d="m32.266273 36.329784c3.147911 0 6.023407 0.57676697 8.626488 1.7303009c2.6182137 1.1535339 4.850506 2.7639885 6.6968765 4.83136c1.8615036 2.0673752 3.163044 4.479313 3.9046173 7.2358055l0 11.190784c-0.6507683 3.0411339 -1.8388023 5.6478233 -3.5640984 7.8200645c-1.7101631 2.157257 -3.866787 3.8351212 -6.469864 5.0336c-2.6030807 1.1834946 -5.5315437 1.7752457 -8.785397 1.7752457c-3.4354591 0 -6.6439056 -0.86888885 -9.6253395 -2.6066895c-2.9814339 -1.7527695 -5.357502 -4.149719 -7.1282015 -7.1908646c-1.7555647 -3.0411377 -2.6333485 -6.3968773 -2.6333485 -10.0672035c0 -3.9699554 0.8550825 -7.4230614 2.5652447 -10.359337c1.725297 -2.951252 4.025693 -5.250828 6.901189 -6.898735c2.8906288 -1.6628876 6.061241 -2.4943314 9.511833 -2.4943314zm-2.3836327 -10.628994c-5.3877697 0 -10.336647 1.2434177 -14.846635 3.730259c-4.509987 2.486843 -8.11949 6.0523148 -10.828509 10.696411c-2.6938841 4.6440926 -4.0408273 10.142105 -4.0408273 16.494041c0 6.4418106 1.2788395 11.894878 3.8365157 16.359211c2.5576763 4.464325 6.046105 7.8500214 10.465288 10.157097c4.419182 2.2920837 9.322659 3.4381332 14.710428 3.4381332c3.359787 0 6.3866234 -0.47940063 9.080509 -1.438179c2.6938858 -0.9737625 5.085087 -2.1947174 7.173603 -3.6628418c2.08852 -1.4681396 3.7608452 -2.913803 5.016983 -4.3369904c0.39050293 -0.44709015 0.73859024 -0.8688507 1.0442581 -1.2652664l0 0l0 9.33252l12.98513 0l0 -57.167366l-12.008976 0l-0.93515396 9.105402l0 0c-1.9233475 -2.9557304 -4.585499 -5.548929 -7.9864464 -7.779587c-3.7078743 -2.4419003 -8.263264 -3.6628456 -13.666168 -3.6628456z" fill-rule="evenodd"/><path fill="#6aa84f" d="m58.855564 0.0013058233c-1.9523125 0 -3.7457123 0.69661486 -5.3802032 2.0898447c-1.634491 1.3782468 -2.4517403 3.0785882 -2.4517403 5.101018c0 2.022431 0.8172493 3.7227721 2.4517403 5.1010184c1.634491 1.3782473 3.4278908 2.0673733 5.3802032 2.0673733c1.9523087 0 3.6927376 -0.6666546 5.2212944 -1.999959c1.5285492 -1.3333035 2.2928238 -3.056116 2.2928238 -5.1684327c0 -2.02243 -0.7642746 -3.7227714 -2.2928238 -5.101018c-1.5285568 -1.3932298 -3.2689857 -2.0898447 -5.2212944 -2.0898447zm-6.833084 27.887066l0 57.16736l12.962429 0l0 -57.16736z" fill-rule="evenodd"/><path fill="#6aa84f" d="m91.23445 36.32963c3.268982 0 6.2504196 0.5767708 8.944305 1.7303009c2.6938858 1.1535339 5.016983 2.7639885 6.9692917 4.8313637c1.9523087 2.0673714 3.3446503 4.479313 4.1770325 7.2358055l0 11.325607c-0.74157715 2.86137 -2.0431137 5.370678 -3.9046173 7.527935c-1.8615036 2.157257 -4.1619034 3.8575974 -6.9011917 5.101021c-2.7392883 1.2434235 -5.8342285 1.8651276 -9.284821 1.8651276c-3.707878 0 -7.0752335 -0.86888885 -10.102066 -2.6066895c-3.0268402 -1.7527695 -5.425606 -4.149719 -7.1963043 -7.190857c-1.7555695 -3.0411415 -2.6333542 -6.396881 -2.6333542 -10.067211c0 -3.8650894 0.8777847 -7.295727 2.6333542 -10.2919235c1.7706985 -2.996189 4.169464 -5.3182373 7.1963043 -6.9661484c3.0268326 -1.6628876 6.394188 -2.4943314 10.102066 -2.4943314zm-2.7695541 -10.628994c-5.4029083 0 -10.38205 1.3333054 -14.937439 3.999918c-4.5553894 2.6666126 -8.233002 6.2845173 -11.032822 10.853708c-2.7846909 4.5542107 -4.1770363 9.820023 -4.1770363 15.797428c0 5.7077484 1.3242416 10.83873 3.972725 15.392944c2.6636162 4.554207 6.197445 8.164612 10.601498 10.831238c4.419182 2.666603 9.284821 3.999916 14.596916 3.999916c6.220154 0 11.517113 -1.3557816 15.890892 -4.067337c3.5035934 -2.172081 6.1380386 -4.7430954 7.903328 -7.7130356l0 0l-0.09408569 10.679268c0 3.3107986 -0.79454803 6.232086 -2.3836365 8.76387c-1.5739517 2.5317764 -3.8743515 4.509262 -6.901184 5.932457c-3.0117035 1.4381714 -6.704445 2.157257 -11.078224 2.157257c-3.9046173 0 -7.4384537 -0.786499 -10.601494 -2.359497c-3.1630478 -1.5580292 -6.2806854 -3.767723 -9.352928 -6.6290817l-7.514122 8.718925c2.406334 2.2022018 4.9337463 4.1721954 7.582222 5.9099884c2.66362 1.7527771 5.6223526 3.1160355 8.876205 4.0898056c3.2538452 0.9737625 7.014694 1.46064 11.282532 1.46064c6.886055 0 12.7883835 -1.2434235 17.706993 -3.7302551c4.9337463 -2.4868393 8.747559 -5.8500595 11.441444 -10.089684c2.7090225 -4.239609 4.06353 -8.936142 4.06353 -14.089592l0 -57.571854l-11.872765 0l-1.0217743 8.15774l0 0c-1.9638138 -2.9782028 -4.945175 -5.44277 -8.944092 -7.393709c-4.222435 -2.0673733 -8.891327 -3.1010609 -14.006683 -3.1010609z" fill-rule="evenodd"/></g></svg>